<svg width="755" height="452" viewBox="0 0 755 452" fill="none" xmlns="http://www.w3.org/2000/svg">
  <g clip-path="url(#clip0_9_1697)">
    <g opacity="0.17">
      <path d="M0 100.71C0 91.79 0.6 83.08 1.79 74.58V70.76C1.79 66.52 3.18 61.74 5.97 56.42C8.75 51.11 12.14 45.69 16.12 40.17C20.09 34.65 24.27 29.23 28.65 23.92C33.02 18.61 36.61 13.83 39.39 9.58001C44.56 7.46001 49.93 5.44001 55.51 3.52001C61.08 1.61001 67.05 0.65001 73.42 0.65001C62.27 17.65 50.63 34.75 38.5 51.96C26.36 69.16 13.52 85.41 0 100.71ZM7.76 416.21C4.97 410.26 3.18 404.1 2.39 397.73C1.59 391.36 1.2 384.77 1.2 377.97V367.13L8.36 358.84C15.52 359.27 22.58 359.59 29.55 359.8C36.51 360.02 43.58 360.12 50.74 360.12C43.58 369.47 36.41 378.71 29.25 387.85C22.09 396.99 14.92 406.44 7.76 416.21ZM47.75 446.81C41.78 444.69 35.81 442.03 29.84 438.84C23.87 435.65 19.1 431.3 15.51 425.77C23.87 415.15 31.82 404.21 39.39 392.94C46.94 381.69 55.1 370.74 63.86 360.11H68.04C70.82 360.11 73.61 360.01 76.4 359.79C79.18 359.58 81.97 359.47 84.76 359.47C88.34 359.47 90.73 359.69 91.92 360.11C91.12 361.38 90.92 362.66 91.32 363.93C91.71 365.2 91.52 366.91 90.72 369.03V370.3C90.72 372 90.92 373.81 91.32 375.72C91.71 377.63 91.92 379.45 91.92 381.14C84.36 391.34 77 402.07 69.83 413.33C62.67 424.59 55.3 435.75 47.75 446.79V446.81ZM53.12 109.63C47.54 110.49 41.98 110.7 36.41 110.27C30.83 109.85 25.26 110.06 19.7 110.91C34.42 93.92 48.25 76.07 61.18 57.37C74.11 38.68 86.55 19.56 98.49 0.0100098C102.46 0.87001 106.94 1.39001 111.92 1.60001C116.89 1.82001 121.17 1.92001 124.75 1.92001H126.54C114.99 21.04 103.26 39.53 91.32 57.37C79.38 75.22 66.64 92.65 53.12 109.64V109.63ZM95.5 451.27C89.13 451.27 82.96 450.95 77 450.31C71.03 449.67 64.86 449.35 58.5 449.35C64.47 439.58 70.63 429.7 77 419.71C83.36 409.73 89.73 399.63 96.1 389.43C100.47 394.11 105.05 396.44 109.83 396.44C115 396.44 119.47 394.85 123.26 391.66C127.04 388.47 128.93 384.12 128.93 378.59V377.32C129.32 372.22 129.43 366.91 129.23 361.39C129.02 355.87 129.32 350.55 130.13 345.46C155.2 313.17 183.25 282.36 214.29 253.04C216.68 256.02 218.26 259.2 219.07 262.6C219.86 266.01 220.65 269.61 221.46 273.44C221.06 275.14 220.86 277.69 220.86 281.09V290.01C220.86 293.42 220.65 295.97 220.26 297.66C196.38 319.76 174.79 343.77 155.5 369.68C136.19 395.6 118.19 422.8 101.48 451.26H95.51L95.5 451.27ZM69.84 181.65L73.42 178.46L81.78 179.1C86.15 178.25 90.53 178.04 94.91 178.46C99.28 178.89 103.46 178.25 107.44 176.55C101.07 183.78 94.8 190.89 88.64 197.9C82.47 204.91 76.2 211.6 69.84 217.98V181.65ZM70.43 237.11C97.09 209.92 122.26 181.66 145.94 152.34C169.61 123.02 193.99 94.13 219.06 65.66L219.66 94.34V102.63C219.66 105.18 219.86 107.95 220.26 110.92C194.79 138.12 169.82 165.42 145.35 192.82C120.88 220.23 95.9 247.32 70.44 274.09V237.12L70.43 237.11ZM92.52 98.79V103.89C92.52 105.59 92.31 107.51 91.92 109.63H76.4C79.18 106.23 82.07 102.94 85.06 99.75C88.04 96.56 90.52 93.06 92.52 89.23V98.79ZM111.62 281.09C106.44 280.24 101.67 279.18 97.29 277.9C92.91 276.63 88.34 275.57 83.56 274.71L219.65 128.75C220.44 135.98 220.64 143.31 220.25 150.74C219.85 158.18 220.04 165.51 220.85 172.73C201.75 190.58 183.74 208.53 166.83 226.59C149.91 244.66 132.51 263.24 114.6 282.36L111.62 281.09ZM158.77 449.35C153.59 450.62 148.22 451.37 142.65 451.58C137.07 451.8 131.5 451.9 125.94 451.9H109.82C125.73 425.13 142.65 399.95 160.56 376.37C178.47 352.79 198.36 330.16 220.25 308.49C219.45 317.41 219.25 326.87 219.65 336.85C220.04 346.84 219.85 357.36 219.05 368.4C197.95 393.48 177.86 420.46 158.76 449.35H158.77ZM130.12 73.3C129.72 71.61 129.32 69.59 128.93 67.24C128.53 64.91 126.54 61.61 122.96 57.36L115.8 54.81C122.16 45.89 128.33 36.96 134.3 28.04C140.27 19.12 145.84 10.19 151.01 1.27001C156.18 1.70001 161.25 2.65001 166.23 4.14001C171.2 5.63001 176.08 6.80001 180.85 7.65001C172.49 20.4 163.93 32.94 155.18 45.26C146.42 57.59 137.67 70.12 128.92 82.87L130.11 73.31L130.12 73.3ZM130.12 302.76C130.12 296.39 127.93 291.29 123.55 287.46C139.07 270.89 154.49 254.54 169.81 238.38C185.12 222.24 201.34 206.51 218.46 191.21C215.27 198.44 211.09 205.02 205.92 210.97C200.74 216.93 195.57 222.44 190.4 227.54C193.98 230.52 197.16 233.5 199.95 236.46C202.73 239.44 205.71 242.83 208.9 246.66C194.97 259.41 181.34 272.69 168.01 286.5C154.67 300.31 142.05 314.86 130.11 330.16V302.75L130.12 302.76ZM128.93 151.7C129.32 150.43 129.53 148.51 129.53 145.96V140.22C129.53 136.82 129.43 133.64 129.23 130.66C129.02 127.69 128.93 124.51 128.93 121.1V115.36C128.93 112.81 129.13 110.69 129.53 108.99C140.67 93.69 152.01 78.51 163.55 63.42C175.09 48.34 186.23 32.94 196.98 17.21C200.56 21.03 204.04 25.18 207.43 29.64C210.81 34.1 213.49 39.1 215.49 44.62C200.76 62.89 186.33 80.85 172.21 98.48C158.08 116.12 143.65 133.85 128.93 151.7ZM218.46 378.6C218.46 396.45 213.88 411.74 204.73 424.49C195.57 437.24 182.05 445.11 164.14 448.07C172.89 435.75 181.64 423.43 190.4 411.1C199.15 398.78 208.5 387.1 218.45 376.04V378.59L218.46 378.6Z" fill="#EE3F3C"/>
      <path d="M253.68 168.91C254.07 165.94 254.37 162.96 254.57 159.99C254.77 157.02 254.87 154.04 254.87 151.07V133.22C275.16 112.82 293.16 91.58 308.89 69.48C324.6 47.39 339.83 24.23 354.55 0.0100098C358.52 0.87001 363 1.39001 367.98 1.60001C372.95 1.82001 377.23 1.92001 380.81 1.92001H382.6C363.5 32.51 343.8 61.94 323.51 90.2C303.22 118.46 279.94 144.7 253.67 168.92L253.68 168.91ZM254.28 194.4C272.19 179.53 288.99 163.17 304.72 145.32C320.43 127.47 335.06 108.78 348.59 89.23C348.59 96.88 348.38 104.32 347.99 111.54C347.59 118.77 347.39 125.99 347.39 133.21C333.06 151.48 318.24 168.49 302.92 184.2C287.6 199.93 271.38 215.01 254.27 229.45V194.39L254.28 194.4ZM254.88 250.49C273.98 234.35 292.08 217.57 309.2 200.14C326.31 182.72 342.63 163.81 358.15 143.41L366.51 145.32C368.09 145.32 369.69 145.22 371.28 145C372.87 144.79 374.26 144.68 375.46 144.68C380.63 144.68 385.4 145.32 389.79 146.59C369.09 172.51 347.41 196.73 324.73 219.25C302.05 241.78 278.77 264.5 254.89 287.45V250.48L254.88 250.49ZM256.07 100.71C256.07 91.79 256.67 83.08 257.86 74.58V70.76C257.86 66.52 259.25 61.74 262.04 56.42C264.82 51.11 268.21 45.69 272.19 40.17C276.16 34.65 280.34 29.23 284.72 23.92C289.09 18.61 292.68 13.83 295.46 9.58001C300.63 7.46001 306 5.44001 311.58 3.52001C317.15 1.61001 323.12 0.65001 329.49 0.65001C318.34 17.65 306.7 34.75 294.57 51.96C282.43 69.17 269.59 85.42 256.07 100.72V100.71ZM256.07 306.58C281.14 281.08 306.11 255.91 330.98 231.05C355.84 206.19 379.63 179.74 402.31 151.7C406.28 154.25 410.27 156.59 414.25 158.71C418.22 160.84 422.21 163.17 426.19 165.72C398.33 196.74 369.98 227.34 341.13 257.5C312.27 287.68 283.92 318.27 256.07 349.28V306.58ZM347.99 297.66V302.76C347.99 304.46 348.19 306.37 348.59 308.5C333.46 326.35 319.04 343.98 305.31 361.4C291.58 378.83 277.75 397.09 263.83 416.21C260.25 408.14 258.55 400.18 258.76 392.31C258.96 384.45 258.26 376.48 256.67 368.41C271.79 350.56 286.91 333.14 302.03 316.14C317.15 299.15 332.47 282.15 347.99 265.15V297.66ZM347.99 360.12L347.39 381.15C331.47 402.4 316.95 424.28 303.82 446.8C297.85 444.68 291.88 442.02 285.91 438.83C279.94 435.64 275.17 431.29 271.58 425.76C283.91 407.91 296.45 390.6 309.18 373.81C321.91 357.03 334.85 340.35 347.98 323.78V360.11L347.99 360.12ZM351.57 391.99C353.16 394.12 355.35 395.4 358.14 395.81C360.92 396.24 363.51 396.45 365.9 396.45C371.07 396.45 375.54 394.86 379.33 391.67C383.11 388.48 385 384.13 385 378.6V377.33C385.39 372.23 385.5 366.92 385.3 361.4C385.09 355.88 385.39 350.56 386.2 345.47C400.12 327.2 414.65 310 429.77 293.84C444.89 277.7 460.81 261.97 477.52 246.67C477.52 253.9 477.22 260.91 476.62 267.7C476.02 274.5 475.72 281.51 475.72 288.73V293.83C475.72 295.53 475.92 297.02 476.32 298.29C452.44 320.39 430.85 344.29 411.56 370C392.25 395.71 374.25 422.8 357.54 451.27H351.57C345.2 451.27 339.03 450.95 333.07 450.31C327.1 449.67 320.93 449.35 314.57 449.35C320.93 439.58 327.11 429.91 333.07 420.35C339.04 410.79 345.2 401.34 351.57 391.99ZM414.84 449.35C409.66 450.62 404.29 451.37 398.72 451.58C393.14 451.8 387.57 451.9 382.01 451.9H365.89C381.8 425.13 398.72 399.95 416.63 376.37C434.54 352.79 454.43 330.16 476.32 308.49C475.92 318.27 475.82 328.04 476.02 337.81C476.22 347.59 475.92 357.36 475.12 367.13C464.38 380.31 453.93 393.8 443.78 407.6C433.63 421.41 423.98 435.33 414.83 449.35H414.84ZM386.19 261.33C386.19 256.23 384.7 251.99 381.71 248.58C378.73 245.18 374.85 242.84 370.07 241.57C380.81 230.1 391.65 218.62 402.6 207.15C413.54 195.68 424.18 184.2 434.53 172.73L455.42 193.76C443.48 205.66 431.84 217.56 420.5 229.45C409.16 241.35 397.72 253.46 386.18 265.78V261.32L386.19 261.33ZM407.08 1.27001C412.25 1.70001 417.32 2.65001 422.3 4.14001C427.27 5.63001 432.15 6.80001 436.92 7.65001C428.56 20.4 420 32.94 411.25 45.26C402.49 57.59 393.74 70.12 384.99 82.87L386.18 73.31C385.78 71.62 385.38 69.6 384.99 67.25C384.59 64.92 382.6 61.62 379.02 57.37L371.86 54.82C378.22 45.9 384.39 36.97 390.36 28.05C396.33 19.13 401.9 10.2 407.07 1.28001L407.08 1.27001ZM453.04 17.21C456.62 21.03 460.1 25.18 463.49 29.64C466.87 34.1 469.55 39.1 471.55 44.62C462.79 55.67 454.03 66.72 445.29 77.76C436.53 88.81 427.77 99.65 419.03 110.27C413.06 110.27 407.39 110.06 402.02 109.63C396.65 109.21 391.17 108.99 385.61 108.99C396.75 93.69 408.09 78.51 419.63 63.42C431.17 48.34 442.31 32.94 453.06 17.21H453.04ZM385.6 281.09C397.93 267.5 410.17 254.32 422.31 241.57C434.44 228.82 447.08 216.29 460.21 203.96C464.18 208.21 467.17 213.2 469.16 218.94C471.15 224.68 473.13 230.31 475.13 235.83C459.61 251.13 444.29 266.53 429.17 282.04C414.04 297.56 399.52 313.81 385.6 330.8V281.08V281.09ZM474.53 378.6C474.53 396.45 469.95 411.74 460.8 424.49C451.64 437.24 438.12 445.11 420.21 448.07C428.96 435.75 437.71 423.43 446.47 411.1C455.22 398.78 464.57 387.1 474.52 376.04V378.59L474.53 378.6ZM475.73 75.21C476.12 78.62 476.33 81.69 476.33 84.45V93.05L475.73 112.17H456.63C449.86 112.17 443.29 111.53 436.93 110.26C443.29 102.61 449.66 95.18 456.03 87.95C462.39 80.73 468.76 73.29 475.13 65.64L475.73 75.2V75.21Z" fill="#EE3F3C"/>
      <path d="M530.63 168.91C531.02 165.94 531.32 162.96 531.52 159.99C531.72 157.02 531.82 154.04 531.82 151.07V133.22C552.11 112.82 570.11 91.58 585.84 69.48C601.55 47.39 616.78 24.23 631.5 0.0100098C635.47 0.87001 639.95 1.39001 644.93 1.60001C649.9 1.82001 654.18 1.92001 657.76 1.92001H659.55C640.45 32.51 620.75 61.94 600.46 90.2C580.17 118.46 556.89 144.7 530.62 168.92L530.63 168.91ZM624.94 89.87C624.94 94.55 624.73 99.54 624.34 104.85C623.94 110.17 623.74 115.59 623.74 121.1V134.49C610.21 151.49 595.78 167.85 580.47 183.57C565.15 199.3 548.73 214.59 531.23 229.46V194.4C549.14 179.53 565.65 163.17 580.77 145.32C595.89 127.47 610.61 108.99 624.94 89.87ZM623.75 165.72C623.75 170.82 623.84 175.82 624.05 180.7C624.25 185.59 624.35 190.8 624.35 196.32C610.02 212.47 595 227.87 579.28 242.53C563.56 257.19 547.74 272.17 531.83 287.47V250.5C548.54 236.06 564.45 221.4 579.58 206.52C594.7 191.65 609.42 175.29 623.75 157.44V165.73V165.72ZM533.02 100.71C533.02 91.79 533.62 83.08 534.81 74.58V70.76C534.81 66.52 536.2 61.74 538.99 56.42C541.77 51.11 545.16 45.69 549.14 40.17C553.11 34.65 557.29 29.23 561.67 23.92C566.04 18.61 569.63 13.83 572.41 9.58001C577.58 7.46001 582.95 5.44001 588.53 3.52001C594.1 1.61001 600.07 0.65001 606.44 0.65001C595.29 17.65 583.65 34.75 571.52 51.96C559.38 69.17 546.54 85.42 533.02 100.72V100.71ZM624.94 214.16C624.94 220.12 625.03 226.06 625.24 232.01C625.44 237.97 625.54 244.12 625.54 250.49L533.02 349.28V306.58C548.54 291.28 564.06 275.99 579.58 260.69C595.1 245.39 610.22 229.89 624.94 214.16ZM624.94 265.15C625.33 268.56 625.54 272.16 625.54 275.99V308.5C610.81 325.5 596.49 342.92 582.56 360.77C568.63 378.62 554.7 397.1 540.78 416.22C537.2 408.15 535.5 400.19 535.71 392.32C535.91 384.46 535.21 376.49 533.62 368.42C548.74 350.57 563.86 333.15 578.98 316.15C594.1 299.16 609.42 282.16 624.94 265.16V265.15ZM624.35 324.43C624.74 327.84 624.95 331.02 624.95 333.99V342.91L624.35 381.15C608.43 402.4 593.91 424.28 580.78 446.8C574.81 444.68 568.84 442.02 562.87 438.83C556.9 435.64 552.13 431.29 548.54 425.76C560.87 408.77 573.21 391.66 585.55 374.45C597.88 357.24 610.82 340.57 624.35 324.42V324.43ZM628.53 391.99C630.12 394.12 632.31 395.4 635.1 395.81C637.88 396.24 640.47 396.45 642.86 396.45C648.03 396.45 652.5 394.86 656.29 391.67C660.07 388.48 661.96 384.13 661.96 378.6V377.33C662.35 372.23 662.46 366.92 662.26 361.4C662.05 355.88 662.35 350.56 663.16 345.47C677.08 327.2 691.61 310 706.73 293.84C721.85 277.7 737.77 261.97 754.48 246.67C754.08 255.18 753.78 263.78 753.58 272.48C753.37 281.19 753.28 289.59 753.28 297.66C729.4 319.76 707.81 343.77 688.52 369.68C669.21 395.6 651.21 422.8 634.5 451.26H628.53C622.16 451.26 615.99 450.94 610.03 450.3C604.06 449.66 597.89 449.34 591.53 449.34C597.89 439.57 604.07 429.9 610.03 420.34C616 410.78 622.16 401.33 628.53 391.98V391.99ZM691.8 449.35C686.62 450.62 681.25 451.37 675.68 451.58C670.1 451.8 664.53 451.9 658.97 451.9H642.85C658.76 425.13 675.68 399.95 693.59 376.37C711.5 352.79 731.39 330.16 753.28 308.49C752.48 317.41 752.28 326.87 752.68 336.85C753.07 346.84 752.88 357.36 752.08 368.4C730.98 393.48 710.89 420.46 691.79 449.35H691.8ZM663.15 73.3C662.75 71.61 662.35 69.59 661.96 67.24C661.56 64.91 659.57 61.61 655.99 57.36L648.83 54.81C655.19 45.89 661.36 36.96 667.33 28.04C673.3 19.12 678.87 10.19 684.04 1.27001C689.21 1.70001 694.28 2.65001 699.26 4.14001C704.23 5.63001 709.11 6.80001 713.88 7.65001C705.52 19.98 697.17 32.19 688.81 44.3C680.45 56.41 671.89 68.63 663.14 80.95V73.3H663.15ZM662.55 191.85V181.97C662.55 178.78 662.34 175.71 661.95 172.73C677.47 154.88 692.49 137.04 707.02 119.19C721.54 101.34 736.57 83.5 752.09 65.65L752.69 112.18C737.56 128.33 722.44 144.69 707.33 161.26C692.2 177.83 677.28 194.4 662.56 210.98V191.86L662.55 191.85ZM663.15 265.79C663.15 260.27 662.94 254.64 662.55 248.9C662.15 243.16 661.95 237.54 661.95 232.01V226.27C677.07 209.7 692.09 193.24 707.02 176.87C721.94 160.52 737.16 144.47 752.68 128.75C753.07 132.16 753.28 135.76 753.28 139.59V173.37C737.76 188.25 722.63 203.33 707.92 218.62C693.19 233.92 678.27 249.64 663.15 265.79ZM662.55 108.99C673.69 93.69 685.03 78.51 696.57 63.42C708.11 48.34 719.25 32.94 730 17.21C733.58 21.03 737.06 25.18 740.45 29.64C743.83 34.1 746.51 39.1 748.51 44.62C733.78 62.89 719.46 80.85 705.53 98.48C691.6 116.12 677.27 133.85 662.55 151.7V109V108.99ZM663.15 330.16C663.15 325.06 663.24 319.64 663.45 313.91C663.65 308.17 663.75 302.55 663.75 297.02V288.1C663.75 284.28 663.54 281.52 663.15 279.81C677.48 264.09 692.3 248.58 707.62 233.28C722.93 217.98 738.36 202.9 753.88 188.03C753.88 191.44 753.78 194.72 753.58 197.91C753.37 201.1 753.28 204.39 753.28 207.79C753.28 212.47 753.37 217.03 753.58 221.49C753.78 225.95 754.07 230.31 754.48 234.56C738.56 249.86 722.94 265.15 707.62 280.45C692.3 295.75 677.48 312.32 663.15 330.17V330.16ZM751.49 378.6C751.49 396.45 746.91 411.74 737.76 424.49C728.6 437.24 715.08 445.11 697.17 448.07C705.92 435.75 714.67 423.43 723.43 411.1C732.18 398.78 741.53 387.1 751.48 376.04V378.59L751.49 378.6Z" fill="#EE3F3C"/>
    </g>
    <path d="M175.11 137.27C175.11 165.72 187.02 179.93 210.86 179.93C215.14 179.93 219.19 179.53 223.01 178.72C226.83 177.91 231.48 176.58 236.97 174.7C241.39 184.36 244.33 194.29 245.81 204.48C241.93 205.96 238.31 207.17 234.97 208.1C231.62 209.04 228.41 209.74 225.33 210.21C222.25 210.68 219.21 211.01 216.19 211.22C213.18 211.42 210.07 211.52 206.85 211.52C195.47 211.52 185.46 209.67 176.83 205.99C168.19 202.3 160.97 197.17 155.14 190.59C149.32 184.02 144.93 176.17 141.99 167.04C139.04 157.92 137.57 147.99 137.57 137.26C137.57 126.53 139.11 116.57 142.19 107.37C145.27 98.1799 149.72 90.2299 155.54 83.5199C161.36 76.8099 168.56 71.5799 177.13 67.8199C185.7 64.0699 195.4 62.1799 206.25 62.1799C212.68 62.1799 218.77 62.6499 224.52 63.5899C230.27 64.5299 236.7 66.4099 243.8 69.2299C243.53 74.7299 242.53 80.0699 240.79 85.2299C239.05 90.3999 237.24 94.9199 235.37 98.8099C232.69 97.8699 230.25 97.0699 228.04 96.3899C225.83 95.7199 223.72 95.1799 221.71 94.7799C219.7 94.3799 217.69 94.0799 215.69 93.8699C213.68 93.6699 211.54 93.5699 209.26 93.5699C198.42 93.5699 190.01 97.2299 184.06 104.54C178.1 111.85 175.12 122.75 175.12 137.24L175.11 137.27Z" fill="white"/>
    <path d="M268.69 65.0199C272.3 64.4899 275.58 64.0799 278.53 63.8099C281.47 63.5399 284.08 63.4099 286.36 63.4099C288.77 63.4099 291.48 63.5499 294.49 63.8099C297.5 64.0799 300.75 64.4799 304.23 65.0199V177.72H350.62C351.29 181.08 351.72 183.99 351.93 186.47C352.13 188.95 352.23 191.2 352.23 193.21C352.23 195.49 352.13 197.87 351.93 200.35C351.73 202.83 351.29 205.82 350.62 209.31H268.69V65.0199Z" fill="white"/>
    <path d="M360.47 137.47C360.47 126.74 361.71 116.78 364.19 107.58C366.67 98.3899 370.48 90.4399 375.64 83.7299C380.79 77.0199 387.35 71.7599 395.32 67.9299C403.28 64.1099 412.76 62.1899 423.74 62.1899C434.72 62.1899 444.15 64.0999 452.06 67.9299C459.96 71.7499 466.48 77.0199 471.64 83.7299C476.79 90.4399 480.61 98.3899 483.09 107.58C485.57 116.77 486.8 126.73 486.8 137.47C486.8 148.21 485.56 158.1 483.09 167.15C480.61 176.21 476.8 184.05 471.64 190.7C466.48 197.34 459.96 202.51 452.06 206.2C444.16 209.89 434.72 211.73 423.74 211.73C412.76 211.73 403.29 209.88 395.32 206.2C387.35 202.51 380.79 197.35 375.64 190.7C370.48 184.06 366.67 176.21 364.19 167.15C361.71 158.09 360.47 148.2 360.47 137.47ZM449.43 137.47C449.43 108.22 440.93 93.5999 423.93 93.5999C406.93 93.5999 397.82 108.22 397.82 137.47C397.82 152.09 399.93 163 404.15 170.17C408.37 177.35 414.89 180.94 423.73 180.94C440.87 180.94 449.44 166.45 449.44 137.47H449.43Z" fill="white"/>
    <path d="M545.82 137.27C545.82 165.72 557.73 179.93 581.57 179.93C585.85 179.93 589.9 179.53 593.72 178.72C597.54 177.91 602.19 176.58 607.68 174.7C612.1 184.36 615.04 194.29 616.52 204.48C612.64 205.96 609.02 207.17 605.68 208.1C602.33 209.04 599.12 209.74 596.04 210.21C592.96 210.68 589.92 211.01 586.9 211.22C583.89 211.42 580.78 211.52 577.56 211.52C566.18 211.52 556.17 209.67 547.54 205.99C538.91 202.3 531.68 197.17 525.85 190.59C520.03 184.02 515.64 176.17 512.7 167.04C509.75 157.92 508.28 147.99 508.28 137.26C508.28 126.53 509.82 116.57 512.9 107.37C515.98 98.1799 520.43 90.2299 526.25 83.5199C532.07 76.8099 539.27 71.5799 547.84 67.8199C556.41 64.0699 566.11 62.1799 576.96 62.1799C583.39 62.1799 589.48 62.6499 595.23 63.5899C600.98 64.5299 607.41 66.4099 614.51 69.2299C614.24 74.7299 613.24 80.0699 611.5 85.2299C609.76 90.3999 607.95 94.9199 606.08 98.8099C603.4 97.8699 600.96 97.0699 598.75 96.3899C596.54 95.7199 594.43 95.1799 592.42 94.7799C590.41 94.3799 588.4 94.0799 586.4 93.8699C584.39 93.6699 582.25 93.5699 579.97 93.5699C569.13 93.5699 560.72 97.2299 554.77 104.54C548.81 111.85 545.83 122.75 545.83 137.24L545.82 137.27Z" fill="white"/>
    <path d="M639.4 65.0199C643.02 64.4899 646.29 64.0799 649.24 63.8099C652.18 63.5399 654.79 63.4099 657.07 63.4099C659.48 63.4099 662.19 63.5499 665.2 63.8099C668.21 64.0799 671.46 64.4799 674.94 65.0199V208.71C667.84 209.92 661.95 210.52 657.27 210.52C652.32 210.52 646.36 209.92 639.4 208.71V65.0199ZM716.92 134.45L754.47 208.71C752.19 209.25 749.15 209.68 745.33 210.02C741.51 210.35 738.07 210.52 734.99 210.52C731.11 210.52 727.36 210.35 723.74 210.02C720.13 209.68 717.04 209.25 714.5 208.71L677.75 136.26L711.69 65.0199C715.71 64.3499 719.19 63.9099 722.13 63.7099C725.07 63.5099 728.09 63.4099 731.17 63.4099C732.64 63.4099 734.31 63.4399 736.19 63.5099C738.06 63.5799 739.9 63.7099 741.71 63.9099C743.52 64.1099 745.25 64.3099 746.93 64.5099C748.6 64.7099 750.04 64.8799 751.25 65.0099L716.91 134.44L716.92 134.45Z" fill="white"/>
    <path d="M286.1 234.94C289.77 234.23 292.88 233.77 295.42 233.56C297.96 233.35 300.57 233.24 303.26 233.24C306.08 233.24 309.05 233.35 312.16 233.56C315.27 233.77 318.8 234.23 322.75 234.94L286.31 386.52C284.19 386.94 281.47 387.37 278.15 387.79C274.83 388.21 271.19 388.43 267.24 388.43C263.29 388.43 259.44 388.18 255.7 387.69C251.96 387.19 249.45 386.81 248.18 386.52L228.06 298.63L206.66 386.52C205.39 386.81 203.02 387.19 199.56 387.69C196.1 388.18 192.39 388.43 188.44 388.43C184.49 388.43 180.95 388.22 177.85 387.79C174.74 387.37 172.13 386.94 170.01 386.52L134.21 235.16C138.16 234.45 141.97 233.96 145.65 233.67C149.32 233.39 152.57 233.25 155.4 233.25C158.08 233.25 160.87 233.36 163.77 233.57C166.66 233.78 169.95 234.24 173.62 234.95L191.2 331.97C194.73 316.4 198.26 300.16 201.79 283.25C205.32 266.34 208.78 250.24 212.17 234.95C214.71 234.53 217.54 234.14 220.64 233.78C223.74 233.43 226.92 233.25 230.17 233.25C232.99 233.25 235.89 233.43 238.86 233.78C241.83 234.13 244.37 234.52 246.49 234.95L268.52 333.03L286.1 234.95V234.94Z" fill="white"/>
    <path d="M337.37 311.37C337.37 300.05 338.67 289.54 341.29 279.84C343.9 270.15 347.93 261.76 353.36 254.68C358.8 247.6 365.72 242.05 374.12 238.01C382.52 233.98 392.51 231.96 404.09 231.96C415.67 231.96 425.62 233.98 433.96 238.01C442.29 242.04 449.18 247.6 454.61 254.68C460.04 261.76 464.07 270.14 466.68 279.84C469.29 289.54 470.6 300.04 470.6 311.37C470.6 322.7 469.29 333.13 466.68 342.68C464.07 352.23 460.04 360.51 454.61 367.52C449.17 374.53 442.29 379.98 433.96 383.87C425.63 387.76 415.67 389.71 404.09 389.71C392.51 389.71 382.52 387.76 374.12 383.87C365.72 379.98 358.8 374.53 353.36 367.52C347.92 360.51 343.9 352.24 341.29 342.68C338.67 333.13 337.37 322.69 337.37 311.37ZM431.21 311.37C431.21 280.52 422.24 265.09 404.31 265.09C386.38 265.09 376.77 280.52 376.77 311.37C376.77 326.8 378.99 338.3 383.44 345.87C387.89 353.44 394.77 357.23 404.09 357.23C422.17 357.23 431.2 341.94 431.2 311.38L431.21 311.37Z" fill="white"/>
    <path d="M497.3 234.94C504.22 234.23 510.61 233.56 516.47 232.92C522.33 232.28 528.51 231.96 535.01 231.96C542.77 231.96 550.54 232.7 558.31 234.19C566.08 235.68 573 238.26 579.07 241.94C585.14 245.62 590.09 250.64 593.9 257.01C597.71 263.38 599.62 271.45 599.62 281.21C599.62 286.45 599.02 291.15 597.82 295.33C596.62 299.51 595.07 303.22 593.16 306.48C591.25 309.74 589.14 312.57 586.81 314.97C584.48 317.38 582.18 319.43 579.93 321.13L612.98 386.52C609.59 387.09 605.88 387.51 601.86 387.79C597.84 388.07 594.2 388.21 590.95 388.21C588.12 388.21 584.84 388.07 581.1 387.79C577.36 387.5 574.07 387.08 571.25 386.52L541.17 317.1L543.08 316.04C544.77 315.19 546.64 313.78 548.69 311.79C550.74 309.81 552.64 307.44 554.41 304.68C556.17 301.92 557.66 298.84 558.86 295.45C560.06 292.05 560.66 288.52 560.66 284.84C560.66 277.76 558.68 272.6 554.73 269.34C550.77 266.09 545.9 264.46 540.11 264.46C538.7 264.46 537.49 264.53 536.51 264.67C535.52 264.81 534.89 264.96 534.6 265.09V386.52C527.11 387.79 520.97 388.43 516.17 388.43C510.94 388.43 504.66 387.79 497.32 386.52V234.94H497.3Z" fill="white"/>
    <path d="M633.09 234.94C636.9 234.38 640.36 233.95 643.47 233.67C646.57 233.39 649.33 233.25 651.73 233.25C654.27 233.25 657.13 233.39 660.31 233.67C663.49 233.96 666.91 234.38 670.58 234.94V386.52C663.09 387.79 656.88 388.43 651.94 388.43C646.71 388.43 640.43 387.79 633.09 386.52V234.94ZM714.86 308.18L754.47 386.51C752.07 387.08 748.86 387.54 744.83 387.89C740.81 388.24 737.17 388.42 733.92 388.42C729.82 388.42 725.87 388.24 722.06 387.89C718.25 387.54 715 387.08 712.31 386.51L673.54 310.09L709.34 234.94C713.58 234.23 717.25 233.77 720.36 233.56C723.46 233.35 726.64 233.24 729.89 233.24C731.44 233.24 733.21 233.28 735.19 233.35C737.17 233.42 739.11 233.56 741.02 233.77C742.93 233.98 744.76 234.19 746.53 234.41C748.29 234.62 749.81 234.8 751.08 234.94L714.86 308.18Z" fill="white"/>
  </g>
  <defs>
    <clipPath id="clip0_9_1697">
      <rect width="754.47" height="451.9" fill="white"/>
    </clipPath>
  </defs>
</svg>
